<?xml version="1.0" standalone="no"?>
<!DOCTYPE svg PUBLIC "-//W3C//DTD SVG 20010904//EN"
 "http://www.w3.org/TR/2001/REC-SVG-20010904/DTD/svg10.dtd">
<svg version="1.0" xmlns="http://www.w3.org/2000/svg"
 width="400.000000pt" height="400.000000pt" viewBox="0 0 400.000000 400.000000"
 preserveAspectRatio="xMidYMid meet">
<metadata>
Created by potrace 1.14, written by Peter Selinger 2001-2017
</metadata>
<g transform="translate(0.000000,400.000000) scale(0.100000,-0.100000)"
fill="#000000" stroke="none">
<path d="M390 2045 l0 -1095 120 0 120 0 0 950 c0 523 4 950 8 950 5 0 39 -75
77 -167 96 -238 312 -767 450 -1108 65 -159 121 -295 126 -300 10 -13 256 -13
267 0 5 6 19 35 31 65 13 30 29 69 36 85 7 17 32 77 55 135 23 58 48 119 55
135 7 17 40 98 74 180 376 930 399 984 409 968 4 -6 7 -435 6 -952 l-1 -941
118 0 c85 0 118 3 121 13 2 6 4 498 3 1092 l0 1080 -200 3 -200 2 -54 -137
c-29 -76 -60 -151 -67 -168 -16 -36 -411 -1018 -464 -1155 -21 -52 -43 -95
-50 -95 -6 0 -63 128 -126 285 -63 157 -118 294 -123 305 -5 11 -28 67 -51
125 -23 58 -46 116 -52 130 -5 14 -72 178 -147 365 l-137 340 -202 3 -202 2 0
-1095z m480 753 c0 -9 334 -857 375 -953 7 -16 50 -124 95 -238 45 -114 84
-206 86 -205 1 2 17 39 35 83 17 44 39 98 49 120 9 22 29 72 45 110 15 39 33
84 40 100 7 17 25 59 39 95 15 36 31 74 36 85 31 68 330 807 330 815 0 12 20
13 35 2 7 -4 -81 -229 -242 -622 -139 -338 -275 -669 -302 -735 -37 -91 -53
-120 -67 -120 -15 0 -60 104 -234 540 -394 989 -374 937 -359 946 14 8 39 -6
39 -23z"/>
<path d="M2643 3013 l2 -127 205 -82 c113 -45 221 -89 240 -97 19 -8 114 -46
210 -85 96 -39 176 -74 177 -79 2 -5 -79 -42 -179 -83 -101 -40 -196 -79 -213
-86 -16 -7 -95 -38 -175 -70 -80 -31 -147 -59 -149 -61 -9 -7 -3 -373 6 -385
74 -95 257 -324 262 -328 3 -3 25 -30 48 -60 22 -30 50 -66 62 -80 11 -14 95
-118 186 -233 l166 -208 167 2 c161 1 194 5 175 18 -8 6 -180 219 -218 272
-19 26 -332 422 -366 464 -25 30 -167 210 -228 289 -29 37 -49 71 -44 75 4 4
189 81 411 171 l403 163 -3 135 -3 135 -70 29 c-116 49 -966 395 -1022 417
l-52 20 2 -126z"/>
<path d="M2132 2388 c-51 -100 -171 -383 -165 -389 5 -3 37 -12 73 -18 36 -7
74 -15 85 -17 20 -5 21 0 24 128 2 73 4 175 6 226 2 94 -3 110 -23 70z"/>
</g>
</svg>
